<svg xmlns="http://www.w3.org/2000/svg" viewBox="0 0 140 99.12"><defs><style>.cls-1{fill:#133351;}.cls-1,.cls-2{fill-rule:evenodd;}.cls-2{fill:#8dbe23;}</style></defs><g id="Слой_2" data-name="Слой 2"><g id="Слой_1-2" data-name="Слой 1"><path class="cls-1" d="M112,35.51c0-.12,0-.24,0-.35a22.94,22.94,0,0,0-4-10.59c-.21-.31-.44-.62-.67-.92A19.19,19.19,0,0,0,99,17.46h0a23.44,23.44,0,0,0-7-1.5,23.07,23.07,0,0,0-44.47,6.15,20,20,0,0,0-19.71,20c0,11.62,7.63,20.05,18.14,20.05A18.57,18.57,0,0,0,63.21,50.52l1.17,3.32a2.44,2.44,0,0,0,1.84,1.6,2.49,2.49,0,0,0,1.29-.1A2.45,2.45,0,0,0,69,52.2l-3.08-8.76A2.51,2.51,0,0,0,64.65,42,2.43,2.43,0,0,0,62.78,42l-.35.12a2.42,2.42,0,0,0-1.74.63L53.3,45.34A2.46,2.46,0,0,0,54.94,50l3.74-1.34A13.79,13.79,0,0,1,45.9,57.29c-7.8,0-13.25-6.22-13.25-15.13A15.1,15.1,0,0,1,47.68,27a14.37,14.37,0,0,1,1.82.12,2.48,2.48,0,0,0,1.93-.61,2.51,2.51,0,0,0,.82-1.86v-.2A18.29,18.29,0,0,1,70.44,6.16,18.09,18.09,0,0,1,87.11,17.1,18.69,18.69,0,0,0,74.76,29.88L73.11,27.2a2.43,2.43,0,0,0-3.37-.79A2.47,2.47,0,0,0,69,29.8l4.87,7.89a2.46,2.46,0,0,0,2,1.16,2.4,2.4,0,0,0,1.38-.37l8.55-5.35A2.46,2.46,0,0,0,83.15,29l-3.68,2.3a13.82,13.82,0,0,1,11.64-10,14,14,0,0,1,11.91,5c.12.14.24.28.35.43a21.54,21.54,0,0,1,4,13.18c0,10.42-10.33,17.43-20,17.43A18.43,18.43,0,0,1,83.9,57,2.46,2.46,0,0,0,83,61.79a23.31,23.31,0,0,0,4.42.42A26.75,26.75,0,0,0,104.45,56a21,21,0,0,0,7.81-16.13,30.94,30.94,0,0,0-.3-4.35Z"/><path class="cls-2" d="M139.86,77.93c-2.12,5.32-4.29,10.62-6.34,16-1,2.58-2.4,4.58-5.22,5.22h-1.82l-.71-.32a1.8,1.8,0,0,1-1.22-1.9,1.83,1.83,0,0,1,1.51-1.68c.32-.07.66-.09,1-.13a2.6,2.6,0,0,0,2.08-3.49q-2.61-6.57-5.22-13.14c-.71-1.78,0-3.21,1.73-3.39,1.06-.11,1.89.48,2.37,1.77,1.12,3,2.22,6,3.33,9,.11.31.25.61.45,1.13.89-2.36,1.71-4.53,2.52-6.7.39-1,.8-2.08,1.15-3.13s.85-1.91,2.07-2.07A2.38,2.38,0,0,1,140,76.57v1.22C140,77.84,139.88,77.88,139.86,77.93ZM120.5,79.2a16,16,0,0,0-1.55.4c-1.61.59-2,1.12-2,2.82,0,2.47,0,4.94,0,7.41,0,1.59-.87,2.58-2.21,2.58s-2.22-1-2.22-2.56q0-6,0-12.09c0-1.65.64-2.52,2-2.7s2.13.59,2.51,2.16a19.79,19.79,0,0,1,2.22-1.75,2.3,2.3,0,0,1,2.66.06,1.78,1.78,0,0,1,.55,2A2.26,2.26,0,0,1,120.5,79.2ZM109.61,79c-.7.24-1.44.34-2.13.59-1.57.57-1.91,1.11-1.91,2.74,0,2.58,0,5.15,0,7.72a2.22,2.22,0,0,1-1.65,2.27,2.14,2.14,0,0,1-2.43-1,3.57,3.57,0,0,1-.33-1.55c0-4,0-8,0-12,0-1.71.66-2.62,2-2.77s2.06.59,2.5,2.26A11.86,11.86,0,0,1,106.94,76a5.2,5.2,0,0,1,1.79-.86,1.78,1.78,0,0,1,2.34,1.32A2.09,2.09,0,0,1,109.61,79ZM97,85.13c-3.36,0-6.72,0-10.14,0a4.4,4.4,0,0,0,5,3.91,17.66,17.66,0,0,0,2.72-.66c.29-.08.56-.22.85-.28a1.84,1.84,0,0,1,2.08,1.06,1.47,1.47,0,0,1-.7,2,20,20,0,0,1-4.37,1.37A8.64,8.64,0,0,1,82.3,85.61,9.13,9.13,0,0,1,86,76.26a8.8,8.8,0,0,1,9.52-.09,8.43,8.43,0,0,1,3.71,6.65A2,2,0,0,1,97,85.13Zm-6-6.74a3.87,3.87,0,0,0-4.25,3.67H94.9A3.71,3.71,0,0,0,91.07,78.39ZM68.4,90.49a3,3,0,0,0-.32-.27,7.2,7.2,0,0,1-.23.7,2.21,2.21,0,0,1-2.37,1.48,2.14,2.14,0,0,1-1.89-2.15q0-9.75,0-19.49a2.21,2.21,0,0,1,4.41,0c.05,1.79,0,3.59,0,5.38v.75A19,19,0,0,1,71.9,75a6.8,6.8,0,0,1,8,4.64,11.58,11.58,0,0,1-.11,8.51A6.88,6.88,0,0,1,68.4,90.49Zm7.49-8.1c-.61-3.3-3.79-4.6-6.63-2.82-.86.54-1.18.59-1.27,1.68L68,86a1.45,1.45,0,0,0,.3.9,4.78,4.78,0,0,0,4.49,1.62,3.72,3.72,0,0,0,3-3A8.16,8.16,0,0,0,75.89,82.39ZM59.68,92.56a11.62,11.62,0,0,1-3.77-.12c-1.83-.42-2.75-2-2.78-4.31,0-2.54,0-5.08,0-7.62V79.43c-2.33-.42-3-1-3-2.22s.85-1.69,3-1.92c0-.75,0-1.51,0-2.28a2.25,2.25,0,0,1,2.25-2.45c1.35,0,2.18.9,2.21,2.44,0,.74,0,1.48,0,2l0,.29c2.14.23,2.95.77,3,1.92s-.66,1.8-3,2.22l0,7.3c0,1.44.49,1.94,1.88,2.09s2,.74,2,1.83A1.74,1.74,0,0,1,59.68,92.56ZM49,72.11c-2.49-.37-3.36.47-3.1,3,2.82.31,3.57.76,3.54,2.08s-.81,1.76-3.61,2v1.06c0,3.21,0,6.62,0,9.82a2.86,2.86,0,0,1-.88,1.82,1.87,1.87,0,0,1-2.34.25,2.16,2.16,0,0,1-1.19-2.07V79.29c-2.37-.43-3-.93-3-2.2s.67-1.6,2.9-2a24.77,24.77,0,0,1,.33-2.59,5.8,5.8,0,0,1,5.63-4.23h0a5.45,5.45,0,0,1,2.85.81,1.59,1.59,0,0,1,.79,2A1.51,1.51,0,0,1,49,72.11ZM42.48,17.74C29.31-2.39,40.15.1,40.15.1c-1.55,3.11,2.33,13.34,3.4,17.1C43.84,18.22,42.48,17.74,42.48,17.74ZM38,17.81C33.3,15.2,18.54,7.94,8.34,13.71c0,0,10.55-1.67,24.84,4.2a16.58,16.58,0,0,1-6,3.8,17.82,17.82,0,0,1-9.92.63C13,21.45,8.39,19.13,3.7,15.43L2.18,14.22A.36.36,0,0,1,2,13.93a.36.36,0,0,1,.15-.29l1.58-1.13A30.5,30.5,0,0,1,10.65,9,24.8,24.8,0,0,1,21.71,7.36a19.47,19.47,0,0,1,12.4,6.23l3.79,4A.34.34,0,0,1,38,17.81ZM12.1,83.88c-1.62-.52-3.29-.93-4.92-1.43a31.62,31.62,0,0,1-3.31-1.16C-1,79.17-1,72.83,3.09,70.07a10.35,10.35,0,0,1,7.33-1.54A36.25,36.25,0,0,1,15,69.65a3.65,3.65,0,0,1,.9.46c1.4.88,1.82,2,1.18,3.11a2.63,2.63,0,0,1-3.43.92,23.59,23.59,0,0,0-4.3-1.29,6.73,6.73,0,0,0-2.76.32A1.88,1.88,0,0,0,5.21,75a1.65,1.65,0,0,0,1.3,1.72c1.72.56,3.49,1,5.22,1.51a24.57,24.57,0,0,1,3.2,1.18c5.21,2.41,4.3,9.38.54,11.66a12,12,0,0,1-6.35,1.57,15.84,15.84,0,0,1-6.74-1.48A6.79,6.79,0,0,1,.81,90.06a2.18,2.18,0,0,1-.37-3,2.3,2.3,0,0,1,3.14-.62,9.93,9.93,0,0,0,5.48,1.8,10.5,10.5,0,0,0,3.12-.59,2,2,0,0,0,1.33-2A1.84,1.84,0,0,0,12.1,83.88ZM29,74.81a8.91,8.91,0,0,1-.06,17.81A8.91,8.91,0,1,1,29,74.81Zm-.88,13.76c2.94.48,5.11-1.58,5.12-4.85,0-2.72-1.63-4.78-3.91-4.91-2.89-.16-5,2.17-4.67,5.27C24.89,86.6,26.16,88.26,28.12,88.57Z"/></g></g></svg>